# xmcd
#
# Track frame offsets: 
#        150
#        19888
#        37354
#        55532
#        71385
#        87395
#        106978
#        128707
#        144511
#        161075
#        180249
#        201930
#        216431
#        233165
#        256660
#        274695
#        289722
#
# Disc length: 4082 seconds
#
# Revision: 0
# Processed by: cddbd v1.5.2PL0 Copyright (c) Steve Scherf et al.
# Submitted via: ExactAudioCopyFreeDBPlugin 1.0
#
DISCID=f50ff011
DTITLE=Various Artist - 100 RnB and Urban Essentials
DYEAR=2011
DGENRE=R&B
TTITLE0=Rihanna, Drake - What's My Name?
TTITLE1=Keyshia Cole - Heaven Sent
TTITLE2=Ronald Isley - No More
TTITLE3=Ryan Leslie - Guardian Angel
TTITLE4=Taio Cruz - Telling The World
TTITLE5=Kem - Share My Life
TTITLE6=Erykah Badu - Window Seat
TTITLE7=Keri Hilson - Energy
TTITLE8=Ne-Yo - Sexy Love
TTITLE9=Chrisette Michele - Fragile
TTITLE10=Ledisi - In The Morning
TTITLE11=Jessie J - Price Tag
TTITLE12=Melanie Fiona - Give It To Me Right
TTITLE13=Drake, Alicia Keys - Fireworks
TTITLE14=Diddy - Dirty Money, Skylar Grey - Coming Home
TTITLE15=Nicki Minaj - Super Bass
TTITLE16=The Pussycat Dolls - I Hate This Part
EXTD=
EXTT0=
EXTT1=
EXTT2=
EXTT3=
EXTT4=
EXTT5=
EXTT6=
EXTT7=
EXTT8=
EXTT9=
EXTT10=
EXTT11=
EXTT12=
EXTT13=
EXTT14=
EXTT15=
EXTT16=
PLAYORDER=
